<svg xmlns="http://www.w3.org/2000/svg" width="83.866" height="94.279" viewBox="0 0 83.866 94.279">
  <g id="Gruppe_1" data-name="Gruppe 1" transform="translate(-810.18 -557.496)">
    <path id="Icon_ionic-ios-settings" data-name="Icon ionic-ios-settings" d="M63.18,36.48A8.231,8.231,0,0,1,68.46,28.8a32.624,32.624,0,0,0-3.948-9.511,8.341,8.341,0,0,1-3.348.716A8.212,8.212,0,0,1,53.653,8.448,32.525,32.525,0,0,0,44.158,4.5,8.223,8.223,0,0,1,28.8,4.5a32.624,32.624,0,0,0-9.511,3.948,8.212,8.212,0,0,1-7.512,11.559,8.069,8.069,0,0,1-3.348-.716A33.345,33.345,0,0,0,4.5,28.818,8.221,8.221,0,0,1,9.78,36.5a8.24,8.24,0,0,1-5.263,7.679,32.624,32.624,0,0,0,3.948,9.511A8.216,8.216,0,0,1,19.307,64.529a32.814,32.814,0,0,0,9.511,3.948,8.208,8.208,0,0,1,15.324,0,32.624,32.624,0,0,0,9.511-3.948A8.224,8.224,0,0,1,64.5,53.686a32.814,32.814,0,0,0,3.948-9.511A8.27,8.27,0,0,1,63.18,36.48ZM36.63,49.788A13.325,13.325,0,1,1,49.955,36.463,13.321,13.321,0,0,1,36.63,49.788Z" transform="translate(805.68 552.996)" fill="#75d3ef"/>
    <path id="Icon_ionic-ios-settings-2" data-name="Icon ionic-ios-settings" d="M41.026,24.406a5.123,5.123,0,0,1,3.287-4.78,20.307,20.307,0,0,0-2.457-5.92,5.192,5.192,0,0,1-2.084.446,5.112,5.112,0,0,1-4.676-7.2A20.246,20.246,0,0,0,29.186,4.5a5.119,5.119,0,0,1-9.559,0,20.307,20.307,0,0,0-5.92,2.457,5.112,5.112,0,0,1-4.676,7.2,5.023,5.023,0,0,1-2.084-.446A20.756,20.756,0,0,0,4.5,19.637,5.122,5.122,0,0,1,4.51,29.2a20.307,20.307,0,0,0,2.457,5.92,5.114,5.114,0,0,1,6.75,6.75,20.425,20.425,0,0,0,5.92,2.457,5.109,5.109,0,0,1,9.538,0,20.307,20.307,0,0,0,5.92-2.457,5.119,5.119,0,0,1,6.75-6.75A20.426,20.426,0,0,0,44.3,29.2,5.148,5.148,0,0,1,41.026,24.406ZM24.5,32.69A8.294,8.294,0,1,1,32.794,24.4,8.292,8.292,0,0,1,24.5,32.69Z" transform="translate(849.733 607.453)" fill="#75d3ef"/>
  </g>
</svg>
